<svg width="34" height="27" viewBox="0 0 34 27" fill="none" xmlns="http://www.w3.org/2000/svg">
<path d="M30.5779 0H3.42139C1.53477 0 0 1.5887 0 3.54073V23.4593C0 25.4117 1.53515 27 3.42139 27H30.5779C32.4652 27 34 25.4117 34 23.4593V3.54112C33.9996 1.5887 32.4652 0 30.5779 0ZM3.42139 1.74045H30.5779C31.5382 1.74045 32.3182 2.54809 32.3182 3.54112V3.70813L18.2668 14.8791C18.2543 14.8912 18.2426 14.9033 18.2298 14.9158C17.9014 15.2557 17.4645 15.4438 16.9996 15.4438C16.5348 15.4438 16.0979 15.2561 15.7691 14.9158C15.757 14.9037 15.7449 14.8916 15.7324 14.8791L1.68141 3.70813V3.54112C1.68141 2.54809 2.46183 1.74045 3.42139 1.74045ZM30.5779 25.2599H3.42139C2.46183 25.2599 1.68141 24.4527 1.68141 23.4593V5.89679L14.5998 16.165C15.2434 16.8213 16.0949 17.1835 17 17.1835C17.9048 17.1835 18.7559 16.8213 19.4002 16.1658L32.3186 5.89679V23.4597C32.3182 24.4527 31.5382 25.2599 30.5779 25.2599Z" fill="black"/>
<path d="M20.064 22H13.9356C13.419 22 13 21.7762 13 21.5C13 21.2238 13.419 21 13.9356 21H20.064C20.581 21 21 21.2238 21 21.5C21 21.7762 20.581 22 20.064 22Z" fill="black"/>
</svg>
