<svg width="30" height="30" viewBox="0 0 30 30" fill="none" xmlns="http://www.w3.org/2000/svg">
<path d="M17.487 0.0079039C17.119 0.021904 16.832 0.33124 16.8457 0.699242C16.8597 1.06724 17.1704 1.35591 17.5367 1.34058C20.4287 1.22291 23.3137 2.39959 25.4574 4.54294C27.6011 6.68695 28.7684 9.57364 28.6601 12.4637C28.6461 12.8317 28.9334 13.141 29.3014 13.155C29.3098 13.1553 29.3184 13.1553 29.3268 13.1553C29.6834 13.1553 29.9791 12.873 29.9924 12.5137C30.1144 9.2543 28.8051 6.00528 26.4001 3.60026C23.9951 1.19525 20.7444 -0.114764 17.487 0.0079039Z" fill="black"/>
<path d="M22.1444 7.855C23.3271 9.03767 24.0185 10.596 24.1435 12.3617C24.1685 12.713 24.4611 12.981 24.8078 12.981C24.8235 12.981 24.8395 12.9804 24.8558 12.9794C25.2231 12.9534 25.4998 12.6344 25.4738 12.267C25.3255 10.1767 24.5005 8.325 23.0874 6.91232C21.6744 5.49931 19.8231 4.67397 17.7327 4.52597C17.3661 4.5033 17.0464 4.77664 17.0207 5.14398C16.9947 5.51165 17.2714 5.83031 17.6387 5.85631C19.4034 5.98098 20.9614 6.67265 22.1444 7.855Z" fill="black"/>
<path d="M25.1099 18.5906C24.3772 17.8579 23.4032 17.4546 22.3672 17.4546C21.3312 17.4546 20.3572 17.8579 19.6245 18.5906L18.4325 19.7823C17.8802 20.3346 17.0052 20.4043 16.3522 19.9476C15.1408 19.1003 13.9888 18.1326 12.9278 17.0716C11.8658 16.0093 10.8981 14.8573 10.0521 13.6476C9.59544 12.9946 9.66478 12.1196 10.2174 11.5672L11.4091 10.3752C12.9215 8.86321 12.9215 6.40253 11.4091 4.89052L8.71577 2.19717C7.98343 1.46483 7.00942 1.06116 5.97308 1.06116C4.93708 1.06116 3.96307 1.46483 3.23073 2.19717L2.00272 3.42484C0.483378 4.94485 -0.238961 7.0782 0.0703747 9.13188C0.496378 11.9616 1.54939 14.8533 3.11406 17.4919C4.23707 19.3963 5.61941 21.1743 7.22243 22.7773C8.8251 24.38 10.6031 25.762 12.5065 26.8847C15.1468 28.4504 18.0382 29.503 20.8675 29.929C21.1812 29.9764 21.4965 29.9997 21.8115 29.9997C23.5589 29.9997 25.2876 29.2844 26.5749 27.9964L27.8026 26.7687C28.5352 26.0363 28.9386 25.0623 28.9386 24.026C28.9386 22.9903 28.5352 22.0163 27.8026 21.2833L25.1099 18.5906ZM26.8602 25.8263L25.6322 27.054C24.4109 28.276 22.7042 28.8577 21.0665 28.611C18.4052 28.2104 15.6805 27.2167 13.1851 25.7373C11.3775 24.671 9.68844 23.358 8.1651 21.835C6.64142 20.3113 5.32841 18.6223 4.26174 16.8136C2.78306 14.3203 1.78972 11.5952 1.38872 8.93355C1.14238 7.29654 1.72439 5.58952 2.94573 4.36785L4.1734 3.14017C5.16608 2.14783 6.78042 2.14783 7.77276 3.14017L10.4661 5.83353C11.4585 6.82587 11.4585 8.44054 10.4661 9.43289L9.27444 10.6249C8.26377 11.6352 8.13143 13.2286 8.95944 14.4123C9.85011 15.6856 10.8681 16.8979 11.9848 18.0149L12.4565 17.5436L11.9851 18.0149C13.1008 19.131 14.3131 20.1486 15.5882 21.0406C16.7725 21.869 18.3655 21.7363 19.3755 20.7256L20.5675 19.534C21.0482 19.0533 21.6875 18.7886 22.3672 18.7886C23.0469 18.7886 23.6862 19.0533 24.1669 19.534L26.8602 22.227C27.3409 22.7076 27.6056 23.347 27.6056 24.0267C27.6056 24.7063 27.3409 25.3453 26.8602 25.8263Z" fill="black"/>
</svg>
